<?xml version="1.0" encoding="iso-8859-1"?>
<!-- Generator: Adobe Illustrator 19.0.0, SVG Export Plug-In . SVG Version: 6.00 Build 0)  -->
<svg version="1.1" id="Layer_1" xmlns="http://www.w3.org/2000/svg" xmlns:xlink="http://www.w3.org/1999/xlink" x="0px" y="0px"
	 viewBox="0 0 512 512" style="enable-background:new 0 0 512 512;" xml:space="preserve">
<polygon style="fill:#00B4D7;" points="266.865,245.136 266.865,60.433 332.381,125.948 446.136,11.541 500.46,65.865 
	386.053,179.62 451.568,245.136 "/>
<polygon style="fill:#0093C4;" points="386.052,179.62 500.46,65.865 473.298,38.703 266.865,245.136 451.568,245.136 "/>
<path d="M471.24,253.284H258.717V40.76l73.648,73.648L446.119,0L512,65.881L397.593,179.637L471.24,253.284z M275.014,236.987
	h156.882l-57.384-57.383L488.92,65.848L446.152,23.08L332.397,137.487l-57.383-57.383V236.987L275.014,236.987z"/>
<rect x="299.458" y="204.39" style="fill:#FFFFFF;" width="76.054" height="16.297"/>
<polygon style="fill:#00B4D7;" points="245.136,266.865 245.136,451.568 179.62,386.053 65.865,500.46 11.541,446.136 
	125.948,332.381 60.433,266.865 "/>
<polygon style="fill:#0093C4;" points="125.948,332.38 11.541,446.136 38.703,473.298 245.136,266.865 60.433,266.865 "/>
<path d="M65.881,512L0,446.119l114.407-113.755L40.76,258.716h212.524v212.524l-73.648-73.648L65.881,512z M23.08,446.152
	l42.767,42.767l113.755-114.407l57.383,57.383V275.014H80.105l57.383,57.383L23.08,446.152z"/>
<rect x="136.485" y="291.309" style="fill:#FFFFFF;" width="76.054" height="16.297"/>
<g>
</g>
<g>
</g>
<g>
</g>
<g>
</g>
<g>
</g>
<g>
</g>
<g>
</g>
<g>
</g>
<g>
</g>
<g>
</g>
<g>
</g>
<g>
</g>
<g>
</g>
<g>
</g>
<g>
</g>
</svg>
